<svg xmlns="http://www.w3.org/2000/svg" viewBox="0 0 309.31 224.47"><defs><style>.cls-1{fill:#231f20;}.cls-2{fill:none;stroke:#231f20;stroke-miterlimit:10;}.cls-3{opacity:0.75;}.cls-4,.cls-5{font-size:199.95px;}.cls-4{fill:#58595b;}.cls-4,.cls-5,.cls-6,.cls-7{font-family:Bauhaus93, "Bauhaus 93";}.cls-5{fill:#bcbec0;}.cls-6,.cls-7{font-size:202.13px;}.cls-6{fill:#8a8c8e;}.cls-7{fill:#f1f2f2;}</style></defs><title>Asset 3</title><g id="Layer_2" data-name="Layer 2"><g id="Layer_1-2" data-name="Layer 1"><path class="cls-1" d="M305.65,219.17c-1.7,1.71-1.7,3-4.11,3s-2.41-.45-4.81-.45-2.41-3.87-4.82-3.87-2.4-.39-4.81-.39-2.41.34-4.81.34-2.41,4.18-4.82,4.18-2.4-3.73-4.81-3.73-2.41,4-4.81,4-2.41-1.88-4.82-1.88-2.4-1.1-4.81-1.1-2.41,1.07-4.82,1.07-2.4,2-4.81,2-2.41-.37-4.81-.37-2.41-2.81-4.82-2.81-2.4,2.28-4.81,2.28-2.41.61-4.82.61-2.4-1.9-4.81-1.9-2.41-.87-4.81-.87-2.41.76-4.82.76-2.41-2.47-4.81-2.47-2.41,0-4.82,0-2.41.13-4.81.13-2.41.25-4.82.25-2.4,2-4.81,2-2.41-.68-4.81-.68-2.41,2.59-4.81,2.59-2.41.34-4.81.34-2.41-1-4.81-1-2.41-3.47-4.82-3.47-2.41,2.38-4.81,2.38-2.41-1.86-4.81-1.86-2.41,2-4.82,2-2.4-2.18-4.81-2.18-2.41,2-4.82,2-2.4-1.81-4.81-1.81-2.41,3.3-4.81,3.3-2.41-2-4.82-2-2.4,2.21-4.81,2.21-2.41-.4-4.82-.4-2.4-3.33-4.81-3.33S111.4,220,109,220s-2.41-.67-4.81-.67-2.41.23-4.82.23-2.41.36-4.82.36-2.4-1.48-4.81-1.48-2.41-.49-4.82-.49-2.41,2-4.82,2-2.4,2.19-4.81,2.19-2.41-2.77-4.82-2.77-2.41,2.44-4.82,2.44-2.41-3.26-4.82-3.26S58.42,222,56,222s-2.41-4.21-4.82-4.21-2.4,1-4.81,1-2.41,2.06-4.82,2.06-2.41-1.14-4.82-1.14-2.41-1-4.82-1-2.41-1-4.82-1-2.4,1.58-4.81,1.58-2.41-1.85-4.82-1.85S15.06,220,12.65,220s-2.42-1.86-4.83-1.86S3.25,223,1.54,221.32s.87-3.86.87-6.27,3-2.41,3-4.82-2.77-2.41-2.77-4.82.94-2.41.94-4.82-2.43-2.41-2.43-4.82S1,193.37,1,191s3-2.41,3-4.82.9-2.41.9-4.81-4-2.41-4-4.82,1.85-2.41,1.85-4.81,2-2.41,2-4.82-3.23-2.41-3.23-4.82-.72-2.41-.72-4.82.4-2.41.4-4.81,3.6-2.41,3.6-4.82-.87-2.41-.87-4.82S2.36,140.38,2.36,138s-1.21-2.41-1.21-4.82S.5,130.74.5,128.33s.36-2.41.36-4.82.59-2.41.59-4.81-.54-2.41-.54-4.82S3,111.47,3,109.06s1.59-2.41,1.59-4.82S5,101.83,5,99.42.64,97,.64,94.6s2.75-2.42,2.75-4.83.33-2.41.33-4.82-.3-2.41-.3-4.82-2.14-2.41-2.14-4.82S2.8,72.9,2.8,70.49s-.6-2.41-.6-4.82,2.67-2.41,2.67-4.83S5,58.44,5,56s-1.69-2.41-1.69-4.82S1,48.8,1,46.39,4.58,44,4.58,41.56s-1.87-2.41-1.87-4.82S1.6,34.33,1.6,31.92s3.63-2.41,3.63-4.83-2.68-2.41-2.68-4.82S.61,19.86.61,17.45s1-2.41,1-4.83,1.56-2.41,1.56-4.83S1.06,4.44,2.76,2.73,5.4,1,7.81,1s2.4,2.89,4.81,2.89S15,1,17.43,1,19.84.5,22.25.5s2.4,3.71,4.81,3.71,2.41-2,4.81-2,2.41,2.3,4.82,2.3S39.09,4,41.5,4s2.41-1.7,4.81-1.7S48.72.69,51.13.69s2.4,4.4,4.81,4.4,2.41-2,4.82-2,2.4,2.32,4.81,2.32S68,.54,70.38.54s2.41,2.3,4.82,2.3S77.61,4.11,80,4.11s2.41-1.29,4.82-1.29,2.4-1.08,4.81-1.08,2.41,2.77,4.82,2.77,2.4-1.33,4.81-1.33,2.41.18,4.82.18S106.49,3,108.9,3s2.41-.84,4.81-.84,2.41-1.6,4.82-1.6,2.4,2.13,4.81,2.13,2.4,1.11,4.81,1.11,2.4-2.39,4.81-2.39,2.4,4,4.81,4,2.41-2.82,4.82-2.82,2.4,1.84,4.81,1.84S149.81.77,152.21.77s2.41,1.1,4.81,1.1,2.41,2,4.82,2,2.4-2.73,4.81-2.73S169.06,5,171.47,5s2.4-3.21,4.81-3.21,2.41,1.91,4.81,1.91,2.41-1.46,4.82-1.46,2.41,1.46,4.81,1.46,2.41.72,4.82.72,2.41-1.05,4.82-1.05h4.81c2.41,0,2.41.72,4.82.72S212.39,4,214.8,4s2.41-.79,4.82-.79S222,2,224.43,2s2.41,1.9,4.82,1.9,2.41,1.32,4.82,1.32,2.41-.39,4.82-.39,2.41-.48,4.81-.48,2.41-1.66,4.82-1.66,2.41-.36,4.82-.36,2.4.3,4.81.3S260.56,5.2,263,5.2s2.41-2,4.82-2,2.4-1.11,4.81-1.11S275,5,277.42,5s2.41-1.62,4.82-1.62S284.65.91,287.06.91s2.41.79,4.82.79,2.41.31,4.82.31,2.41,1.79,4.83,1.79,3.21-2.64,4.92-.94,2.17,2.51,2.17,4.92-3.91,2.41-3.91,4.82S306,15,306,17.42s-1.49,2.41-1.49,4.82.26,2.41.26,4.82,1.6,2.4,1.6,4.81,1.14,2.41,1.14,4.82-.88,2.41-.88,4.81-.37,2.41-.37,4.82-.25,2.41-.25,4.81,2.83,2.41,2.83,4.82-.53,2.41-.53,4.82.25,2.41.25,4.82-.26,2.41-.26,4.81-2.6,2.41-2.6,4.82,2.74,2.41,2.74,4.82-2.8,2.41-2.8,4.82-.79,2.41-.79,4.82,3.1,2.41,3.1,4.82-3.73,2.41-3.73,4.82,1.1,2.41,1.1,4.81S307,106.54,307,109s-1.79,2.41-1.79,4.82,2.36,2.41,2.36,4.82,0,2.41,0,4.82-2.07,2.41-2.07,4.82,2.45,2.41,2.45,4.83-3.61,2.41-3.61,4.82-.42,2.41-.42,4.82.82,2.41.82,4.82,3.78,2.41,3.78,4.82-3,2.41-3,4.82,3.19,2.41,3.19,4.83-2.08,2.4-2.08,4.81-2.45,2.41-2.45,4.82,2,2.41,2,4.82-.67,2.41-.67,4.82,1.2,2.42,1.2,4.83-.19,2.41-.19,4.82.84,2.41.84,4.83-2.41,2.41-2.41,4.82,3.37,2.41,3.37,4.82-3.36,2.41-3.36,4.83.29,2.54.63,4.94C305.88,217.34,307.36,217.46,305.65,219.17Z"/><path class="cls-2" d="M305.65,219.17c-1.7,1.71-1.7,3-4.11,3s-2.41-.45-4.81-.45-2.41-3.87-4.82-3.87-2.4-.39-4.81-.39-2.41.34-4.81.34-2.41,4.18-4.82,4.18-2.4-3.73-4.81-3.73-2.41,4-4.81,4-2.41-1.88-4.82-1.88-2.4-1.1-4.81-1.1-2.41,1.07-4.82,1.07-2.4,2-4.81,2-2.41-.37-4.81-.37-2.41-2.81-4.82-2.81-2.4,2.28-4.81,2.28-2.41.61-4.82.61-2.4-1.9-4.81-1.9-2.41-.87-4.81-.87-2.41.76-4.82.76-2.41-2.47-4.81-2.47-2.41,0-4.82,0-2.41.13-4.81.13-2.41.25-4.82.25-2.4,2-4.81,2-2.41-.68-4.81-.68-2.41,2.59-4.81,2.59-2.41.34-4.81.34-2.41-1-4.81-1-2.41-3.47-4.82-3.47-2.41,2.38-4.81,2.38-2.41-1.86-4.81-1.86-2.41,2-4.82,2-2.4-2.18-4.81-2.18-2.41,2-4.82,2-2.4-1.81-4.81-1.81-2.41,3.3-4.81,3.3-2.41-2-4.82-2-2.4,2.21-4.81,2.21-2.41-.4-4.82-.4-2.4-3.33-4.81-3.33S111.4,220,109,220s-2.41-.67-4.81-.67-2.41.23-4.82.23-2.41.36-4.82.36-2.4-1.48-4.81-1.48-2.41-.49-4.82-.49-2.41,2-4.82,2-2.4,2.19-4.81,2.19-2.41-2.77-4.82-2.77-2.41,2.44-4.82,2.44-2.41-3.26-4.82-3.26S58.42,222,56,222s-2.41-4.21-4.82-4.21-2.4,1-4.81,1-2.41,2.06-4.82,2.06-2.41-1.14-4.82-1.14-2.41-1-4.82-1-2.41-1-4.82-1-2.4,1.58-4.81,1.58-2.41-1.85-4.82-1.85S15.06,220,12.65,220s-2.42-1.86-4.83-1.86S3.25,223,1.54,221.32s.87-3.86.87-6.27,3-2.41,3-4.82-2.77-2.41-2.77-4.82.94-2.41.94-4.82-2.43-2.41-2.43-4.82S1,193.37,1,191s3-2.41,3-4.82.9-2.41.9-4.81-4-2.41-4-4.82,1.85-2.41,1.85-4.81,2-2.41,2-4.82-3.23-2.41-3.23-4.82-.72-2.41-.72-4.82.4-2.41.4-4.81,3.6-2.41,3.6-4.82-.87-2.41-.87-4.82S2.36,140.38,2.36,138s-1.21-2.41-1.21-4.82S.5,130.74.5,128.33s.36-2.41.36-4.82.59-2.41.59-4.81-.54-2.41-.54-4.82S3,111.47,3,109.06s1.59-2.41,1.59-4.82S5,101.83,5,99.42.64,97,.64,94.6s2.75-2.42,2.75-4.83.33-2.41.33-4.82-.3-2.41-.3-4.82-2.14-2.41-2.14-4.82S2.8,72.9,2.8,70.49s-.6-2.41-.6-4.82,2.67-2.41,2.67-4.83S5,58.44,5,56s-1.69-2.41-1.69-4.82S1,48.8,1,46.39,4.58,44,4.58,41.56s-1.87-2.41-1.87-4.82S1.6,34.33,1.6,31.92s3.63-2.41,3.63-4.83-2.68-2.41-2.68-4.82S.61,19.86.61,17.45s1-2.41,1-4.83,1.56-2.41,1.56-4.83S1.06,4.44,2.76,2.73,5.4,1,7.81,1s2.4,2.89,4.81,2.89S15,1,17.43,1,19.84.5,22.25.5s2.4,3.71,4.81,3.71,2.41-2,4.81-2,2.41,2.3,4.82,2.3S39.09,4,41.5,4s2.41-1.7,4.81-1.7S48.72.69,51.13.69s2.4,4.4,4.81,4.4,2.41-2,4.82-2,2.4,2.32,4.81,2.32S68,.54,70.38.54s2.41,2.3,4.82,2.3S77.61,4.11,80,4.11s2.41-1.29,4.82-1.29,2.4-1.08,4.81-1.08,2.41,2.77,4.82,2.77,2.4-1.33,4.81-1.33,2.41.18,4.82.18S106.49,3,108.9,3s2.41-.84,4.81-.84,2.41-1.6,4.82-1.6,2.4,2.13,4.81,2.13,2.4,1.11,4.81,1.11,2.4-2.39,4.81-2.39,2.4,4,4.81,4,2.41-2.82,4.82-2.82,2.4,1.84,4.81,1.84S149.81.77,152.21.77s2.41,1.1,4.81,1.1,2.41,2,4.82,2,2.4-2.73,4.81-2.73S169.06,5,171.47,5s2.4-3.21,4.81-3.21,2.41,1.91,4.81,1.91,2.41-1.46,4.82-1.46,2.41,1.46,4.81,1.46,2.41.72,4.82.72,2.41-1.05,4.82-1.05h4.81c2.41,0,2.41.72,4.82.72S212.39,4,214.8,4s2.41-.79,4.82-.79S222,2,224.43,2s2.41,1.9,4.82,1.9,2.41,1.32,4.82,1.32,2.41-.39,4.82-.39,2.41-.48,4.81-.48,2.41-1.66,4.82-1.66,2.41-.36,4.82-.36,2.4.3,4.81.3S260.56,5.2,263,5.2s2.41-2,4.82-2,2.4-1.11,4.81-1.11S275,5,277.42,5s2.41-1.62,4.82-1.62S284.65.91,287.06.91s2.41.79,4.82.79,2.41.31,4.82.31,2.41,1.79,4.83,1.79,3.21-2.64,4.92-.94,2.17,2.51,2.17,4.92-3.91,2.41-3.91,4.82S306,15,306,17.42s-1.49,2.41-1.49,4.82.26,2.41.26,4.82,1.6,2.4,1.6,4.81,1.14,2.41,1.14,4.82-.88,2.41-.88,4.81-.37,2.41-.37,4.82-.25,2.41-.25,4.81,2.83,2.41,2.83,4.82-.53,2.41-.53,4.82.25,2.41.25,4.82-.26,2.41-.26,4.81-2.6,2.41-2.6,4.82,2.74,2.41,2.74,4.82-2.8,2.41-2.8,4.82-.79,2.41-.79,4.82,3.1,2.41,3.1,4.82-3.73,2.41-3.73,4.82,1.1,2.41,1.1,4.81S307,106.54,307,109s-1.79,2.41-1.79,4.82,2.36,2.41,2.36,4.82,0,2.41,0,4.82-2.07,2.41-2.07,4.82,2.45,2.41,2.45,4.83-3.61,2.41-3.61,4.82-.42,2.41-.42,4.82.82,2.41.82,4.82,3.78,2.41,3.78,4.82-3,2.41-3,4.82,3.19,2.41,3.19,4.83-2.08,2.4-2.08,4.81-2.45,2.41-2.45,4.82,2,2.41,2,4.82-.67,2.41-.67,4.82,1.2,2.42,1.2,4.83-.19,2.41-.19,4.82.84,2.41.84,4.83-2.41,2.41-2.41,4.82,3.37,2.41,3.37,4.82-3.36,2.41-3.36,4.83.29,2.54.63,4.94C305.88,217.34,307.36,217.46,305.65,219.17Z"/><text/><g class="cls-3"><text class="cls-4" transform="matrix(-0.95, 0, 0, 1, 190.85, 173.93)">B</text></g><text class="cls-5" transform="matrix(-0.95, 0, 0, 1, 185.85, 168.93)">B</text><g class="cls-3"><text class="cls-6" transform="translate(128.5 173.93) scale(1.05 1)">P</text></g><text class="cls-7" transform="translate(123.5 168.93) scale(1.05 1)">P</text></g></g></svg>